<svg xmlns="http://www.w3.org/2000/svg" width="343" height="311"><defs><radialGradient cx="50%" cy="50%" fx="50%" fy="50%" r="50%" gradientTransform="matrix(0 1 -.95717 0 .979 0)" id="b"><stop stop-color="#FFF" offset="0%"/><stop stop-color="#D8E7F6" offset="100%"/></radialGradient><radialGradient cx="50.843%" cy="16.732%" fx="50.843%" fy="16.732%" r="83.268%" id="c"><stop stop-color="#FEE8CF" offset="0%"/><stop stop-color="#D8B793" offset="100%"/></radialGradient><linearGradient x1="99.374%" y1="66.756%" x2=".808%" y2="66.756%" id="a"><stop stop-color="#332D69" offset="0%"/><stop stop-color="#B7DCF3" offset="100%"/></linearGradient></defs><g fill="none" fill-rule="evenodd"><circle fill-opacity=".2" fill="url(#a)" cx="308.531" cy="156.989" r="33.681"/><circle fill-opacity=".5" fill="url(#b)" opacity=".7" cx="163.659" cy="88.708" r="88.708"/><circle fill-opacity=".2" fill="url(#c)" cx="53.604" cy="156.213" r="53.604"/><g fill-rule="nonzero"><path d="M210.09 77.237c-35.31 0-64.04 28.73-64.04 64.04 0 35.312 28.73 64.041 64.04 64.041 35.312 0 64.041-28.73 64.041-64.04 0-35.312-28.73-64.041-64.04-64.041zm0 117.408c-29.426 0-53.367-23.94-53.367-53.368 0-29.426 23.941-53.367 53.368-53.367 29.426 0 53.367 23.94 53.367 53.368 0 29.426-23.94 53.367-53.367 53.367z" fill="#E2BC3A"/><path d="M234.398 53.915l-7.116-10.673a3.562 3.562 0 00-2.96-1.583h-28.463a3.562 3.562 0 00-2.96 1.583l-7.115 10.673c-.399.602-.57 1.288-.57 1.975h49.753c0-.687-.17-1.373-.57-1.975z" fill="#0096DB"/><path d="M185.214 55.89c0 .829.26 1.654.83 2.316l21.346 24.905a3.55 3.55 0 002.7 1.241 3.55 3.55 0 002.701-1.241l21.347-24.905c.57-.662.829-1.487.829-2.316h-49.753z" fill="#0076BD"/></g><g fill-rule="nonzero"><path d="M264.247 220.527l-29.886 89.657a3.317 3.317 0 002.632-1.296l67.864-88.223-.087-.138h-40.523z" fill="#0076BD"/><path fill="#103361" d="M304.77 220.527l-27.24-43.168-13.283 43.168z"/><path fill="#0096DB" d="M191.193 177.359l-27.24 43.168h40.523z"/><path d="M163.953 220.527l-.087.138 67.864 88.223a3.317 3.317 0 002.631 1.296l-29.885-89.657h-40.523z" fill="#0076BD"/><path fill="#0076BD" d="M234.361 177.359h-43.168l13.283 43.168z"/><path fill="#103361" d="M204.476 220.527l29.885 89.657 29.886-89.657z"/><path fill="#0076BD" d="M277.53 177.359h-43.17l29.886 43.168z"/><path fill="#0096DB" d="M264.247 220.527l-29.886-43.168-29.885 43.168z"/></g><g fill-rule="nonzero"><path d="M125.35 247.509h-55.2a3.45 3.45 0 00-3.45 3.45v10.35c0 9.06 15.62 13.8 31.05 13.8 15.43 0 31.05-4.74 31.05-13.8v-10.35a3.45 3.45 0 00-3.45-3.45z" fill="#D8BC48"/><path d="M97.75 237.159c-15.43 0-31.05 4.74-31.05 13.8s15.62 13.8 31.05 13.8c15.43 0 31.05-4.74 31.05-13.8s-15.62-13.8-31.05-13.8z" fill="#EFD358"/><path d="M125.35 230.259h-55.2a3.45 3.45 0 00-3.45 3.45v10.35c0 9.06 15.62 13.8 31.05 13.8 15.43 0 31.05-4.74 31.05-13.8v-10.35a3.45 3.45 0 00-3.45-3.45z" fill="#D8BC48"/><path d="M97.75 219.909c-15.43 0-31.05 4.74-31.05 13.8s15.62 13.8 31.05 13.8c15.43 0 31.05-4.74 31.05-13.8s-15.62-13.8-31.05-13.8z" fill="#EFD358"/><path d="M125.35 213.009h-55.2a3.45 3.45 0 00-3.45 3.45v10.35c0 9.06 15.62 13.8 31.05 13.8 15.43 0 31.05-4.74 31.05-13.8v-10.35a3.45 3.45 0 00-3.45-3.45z" fill="#D8BC48"/><path d="M97.75 202.659c-15.43 0-31.05 4.74-31.05 13.8s15.62 13.8 31.05 13.8c15.43 0 31.05-4.74 31.05-13.8s-15.62-13.8-31.05-13.8z" fill="#EFD358"/><path d="M125.35 195.759h-55.2a3.45 3.45 0 00-3.45 3.45v10.35c0 9.06 15.62 13.8 31.05 13.8 15.43 0 31.05-4.74 31.05-13.8v-10.35a3.45 3.45 0 00-3.45-3.45z" fill="#D8BC48"/><path d="M97.75 185.409c-15.43 0-31.05 4.74-31.05 13.8s15.62 13.8 31.05 13.8c15.43 0 31.05-4.74 31.05-13.8s-15.62-13.8-31.05-13.8z" fill="#EFD358"/><path d="M125.35 178.509h-55.2a3.45 3.45 0 00-3.45 3.45v10.35c0 9.06 15.62 13.8 31.05 13.8 15.43 0 31.05-4.74 31.05-13.8v-10.35a3.45 3.45 0 00-3.45-3.45z" fill="#D8BC48"/><path d="M97.75 168.159c-15.43 0-31.05 4.74-31.05 13.8s15.62 13.8 31.05 13.8c15.43 0 31.05-4.74 31.05-13.8s-15.62-13.8-31.05-13.8z" fill="#EFD358"/><path d="M125.35 161.259h-55.2a3.45 3.45 0 00-3.45 3.45v10.35c0 9.06 15.62 13.8 31.05 13.8 15.43 0 31.05-4.74 31.05-13.8v-10.35a3.45 3.45 0 00-3.45-3.45z" fill="#D8BC48"/><path d="M97.75 150.909c-15.43 0-31.05 4.74-31.05 13.8s15.62 13.8 31.05 13.8c15.43 0 31.05-4.74 31.05-13.8s-15.62-13.8-31.05-13.8z" fill="#EFD358"/><path d="M128.8 166.651c-11.73 2.86-20.7 8.95-20.7 18.758v10.35c0 1.165.143 2.32.426 3.45a14.175 14.175 0 00-.426 3.45v10.35c0 1.165.143 2.32.426 3.45a14.175 14.175 0 00-.426 3.45v10.35c0 1.165.143 2.32.426 3.45a14.175 14.175 0 00-.426 3.45v10.35c0 1.165.143 2.32.426 3.45a14.175 14.175 0 00-.426 3.45v10.35c0 1.165.143 2.32.426 3.45a14.175 14.175 0 00-.426 3.45v2.708c11.362-1.647 20.7-6.057 20.7-13.058v-10.35c0-1.233-.312-2.378-.85-3.45.538-1.072.85-2.217.85-3.45v-10.35c0-1.233-.312-2.378-.85-3.45.538-1.072.85-2.217.85-3.45v-10.35c0-1.233-.312-2.378-.85-3.45.538-1.072.85-2.217.85-3.45v-10.35c0-1.233-.312-2.378-.85-3.45.538-1.072.85-2.217.85-3.45v-10.35c0-1.233-.312-2.378-.85-3.45.538-1.072.85-2.217.85-3.45v-8.408z" fill="#000" opacity=".1"/><path d="M173.65 268.209h-55.2a3.45 3.45 0 00-3.45 3.45v10.35c0 9.06 15.62 13.8 31.05 13.8 15.43 0 31.05-4.74 31.05-13.8v-10.35a3.45 3.45 0 00-3.45-3.45z" fill="#D8BC48"/><path d="M146.05 257.859c-15.43 0-31.05 4.74-31.05 13.8s15.62 13.8 31.05 13.8c15.43 0 31.05-4.74 31.05-13.8s-15.62-13.8-31.05-13.8z" fill="#EFD358"/><path d="M173.65 250.959h-55.2a3.45 3.45 0 00-3.45 3.45v10.35c0 9.06 15.62 13.8 31.05 13.8 15.43 0 31.05-4.74 31.05-13.8v-10.35a3.45 3.45 0 00-3.45-3.45z" fill="#D8BC48"/><path d="M146.05 240.609c-15.43 0-31.05 4.74-31.05 13.8s15.62 13.8 31.05 13.8c15.43 0 31.05-4.74 31.05-13.8s-15.62-13.8-31.05-13.8z" fill="#EFD358"/><path d="M173.65 233.709h-55.2a3.45 3.45 0 00-3.45 3.45v10.35c0 9.06 15.62 13.8 31.05 13.8 15.43 0 31.05-4.74 31.05-13.8v-10.35a3.45 3.45 0 00-3.45-3.45z" fill="#D8BC48"/><path d="M146.05 223.359c-15.43 0-31.05 4.74-31.05 13.8s15.62 13.8 31.05 13.8c15.43 0 31.05-4.74 31.05-13.8s-15.62-13.8-31.05-13.8z" fill="#EFD358"/><path d="M173.65 216.459h-55.2a3.45 3.45 0 00-3.45 3.45v10.35c0 9.06 15.62 13.8 31.05 13.8 15.43 0 31.05-4.74 31.05-13.8v-10.35a3.45 3.45 0 00-3.45-3.45z" fill="#D8BC48"/><path d="M146.05 206.109c-15.43 0-31.05 4.74-31.05 13.8s15.62 13.8 31.05 13.8c15.43 0 31.05-4.74 31.05-13.8s-15.62-13.8-31.05-13.8z" fill="#EFD358"/><path d="M173.65 199.209h-55.2a3.45 3.45 0 00-3.45 3.45v10.35c0 9.06 15.62 13.8 31.05 13.8 15.43 0 31.05-4.74 31.05-13.8v-10.35a3.45 3.45 0 00-3.45-3.45z" fill="#D8BC48"/><path d="M146.05 188.859c-15.43 0-31.05 4.74-31.05 13.8s15.62 13.8 31.05 13.8c15.43 0 31.05-4.74 31.05-13.8s-15.62-13.8-31.05-13.8z" fill="#EFD358"/><path d="M173.65 181.959h-55.2a3.45 3.45 0 00-3.45 3.45v10.35c0 9.06 15.62 13.8 31.05 13.8 15.43 0 31.05-4.74 31.05-13.8v-10.35a3.45 3.45 0 00-3.45-3.45z" fill="#D8BC48"/><path d="M146.05 171.609c-15.43 0-31.05 4.74-31.05 13.8s15.62 13.8 31.05 13.8c15.43 0 31.05-4.74 31.05-13.8s-15.62-13.8-31.05-13.8z" fill="#EFD358"/></g></g></svg>