<svg xmlns="http://www.w3.org/2000/svg" width="67" height="80"><g fill="none"><path d="M62.609 80H3.479A3.477 3.477 0 010 76.522V3.478A3.477 3.477 0 013.478 0h41.74l20.869 20.87v55.652A3.477 3.477 0 0162.609 80z" fill="#BFDEE0"/><path d="M45.217 0v17.391a3.477 3.477 0 003.479 3.479h17.391L45.217 0zm5.218 36.522H15.652a1.739 1.739 0 110-3.479h34.783a1.739 1.739 0 110 3.479z" fill="#0076C3"/><path d="M31.304 40V29.565c0-.96.78-1.739 1.74-1.739h10.434c.96 0 1.74.78 1.74 1.74V40c0 .96-.78 1.74-1.74 1.74H33.043A1.74 1.74 0 0131.304 40z" fill="#103361"/><path d="M50.435 57.391H15.652a1.739 1.739 0 110-3.478h34.783a1.739 1.739 0 110 3.478z" fill="#0076C3"/><path d="M20.87 60.87V50.435c0-.96.779-1.74 1.739-1.74h10.434c.96 0 1.74.78 1.74 1.74V60.87c0 .96-.78 1.739-1.74 1.739H22.61c-.96 0-1.74-.78-1.74-1.74z" fill="#103361"/></g></svg>