<svg xmlns="http://www.w3.org/2000/svg" width="83" height="80"><g fill="none"><path d="M80.83 51.82a5.851 5.851 0 00-6.887-1.089l-15.276 7.63a9.36 9.36 0 01-8.176 6.403l-19.88 1.42h-.131a1.792 1.792 0 01-.125-3.582l.127-.009 19.716-1.026a5.77 5.77 0 000-11.51L31.75 46.702a14.371 14.371 0 01-2.47-.68l-9.915-3.719a14.328 14.328 0 00-6.615-.825L1.63 42.715a1.79 1.79 0 00-1.594 1.78v21.672c0 .989.802 1.79 1.79 1.79h1.502c2.537 0 5.028.674 7.22 1.953l13.377 7.821a14.328 14.328 0 0010.17 1.645l25.538-5.374a14.328 14.328 0 005.65-2.56l14.823-11.129a5.717 5.717 0 00.724-8.493z" fill="#EEBC99"/><circle fill="#EFD358" cx="50.149" cy="19.701" r="19.701"/><path d="M50.15 35.82c-8.903 0-16.12-7.216-16.12-16.119 0-8.902 7.217-16.119 16.12-16.119 8.902 0 16.119 7.217 16.119 16.12-.01 8.898-7.221 16.109-16.12 16.119z" fill="#D8BC48"/><path d="M50.15 32.239c-6.925 0-12.538-5.613-12.538-12.538 0-6.924 5.613-12.537 12.537-12.537s12.538 5.613 12.538 12.537c-.008 6.921-5.617 12.53-12.538 12.538z" fill="#EFD358"/><path d="M50.15 26.866a1.79 1.79 0 01-1.267-.525l-5.373-5.373c-.7-.7-.7-1.833 0-2.533l5.373-5.373c.7-.7 1.833-.7 2.533 0l5.373 5.373c.699.7.699 1.833 0 2.533l-5.373 5.373a1.79 1.79 0 01-1.267.525z" fill="#D8BC48"/></g></svg>