<svg xmlns="http://www.w3.org/2000/svg" width="63" height="80"><g fill="none"><path d="M43.478 22.609H19.13S0 45.217 0 59.13C0 66.923 4.066 80 31.304 80 58.543 80 62.61 66.923 62.61 59.13c0-13.913-19.13-36.521-19.13-36.521z" fill="#50341D"/><path d="M33.84 39.03a9.418 9.418 0 015.875 1.807l1.24.95L42.9 39.36l-1.239-.951a12.534 12.534 0 00-7.82-2.462c-5.097 0-10.923 2.754-12.541 10.172h-3.91v2.466h3.542a22.624 22.624 0 000 3.7H17.39v2.465h3.91c1.618 7.419 7.444 10.173 12.542 10.173a12.534 12.534 0 007.815-2.462l1.24-.951-1.942-2.427-1.24.95a9.418 9.418 0 01-5.873 1.807c-5.343 0-8.145-3.2-9.254-7.09h9.19v-2.466h-9.664a16.4 16.4 0 010-3.699h9.665V46.12H24.59c1.109-3.889 3.91-7.09 9.25-7.09z" fill="#0098E8"/><path d="M19.13 19.13h24.348l4.988-9.565a1.74 1.74 0 00-.892-2.488l-6.967-2.66.948-1.9A1.74 1.74 0 0040 0H22.609a1.74 1.74 0 00-1.557 2.517l.95 1.9-6.969 2.653a1.74 1.74 0 00-.89 2.495l4.987 9.565z" fill="#50341D"/><path fill="#0098E8" d="M19.13 19.13h24.348v3.478H19.13zm6.362-7.733l-3.49-6.98-3.268 1.244 3.652 7.29a1.74 1.74 0 103.111-1.554h-.005zm11.625 0l3.49-6.98 3.268 1.244-3.652 7.29a1.74 1.74 0 11-3.112-1.554h.006z"/></g></svg>