<svg xmlns="http://www.w3.org/2000/svg" width="18" height="16"><g fill="none"><path d="M12.133 5.2L8.533 16a.4.4 0 00.317-.156l8.175-10.627-.01-.017h-4.882z" fill="#0076C3"/><path fill="#013264" d="M17.015 5.2L13.733 0l-1.6 5.2z"/><path fill="#0097E1" d="M3.333 0L.052 5.2h4.881z"/><path d="M.052 5.2l-.01.017 8.174 10.627a.4.4 0 00.317.156l-3.6-10.8H.052z" fill="#0076C3"/><path fill="#0076C3" d="M8.533 0h-5.2l1.6 5.2z"/><path fill="#013264" d="M4.933 5.2l3.6 10.8 3.6-10.8z"/><path fill="#0076C3" d="M13.733 0h-5.2l3.6 5.2z"/><path fill="#0097E1" d="M12.133 5.2L8.533 0l-3.6 5.2z"/></g></svg>