<svg xmlns="http://www.w3.org/2000/svg" width="81" height="80"><g fill="none"><path d="M51.089 50.74l-6.237 7.796A65.8 65.8 0 0121.466 35.15l7.797-6.236a5.3 5.3 0 001.53-6.285l-7.108-16a5.296 5.296 0 00-6.175-2.978L3.983 7.157A5.332 5.332 0 00.05 13.043C4.93 47.773 32.226 75.07 66.957 79.95a5.325 5.325 0 005.883-3.93l3.508-13.53a5.3 5.3 0 00-2.978-6.175l-15.996-7.098a5.296 5.296 0 00-6.285 1.522z" fill="#50341D"/><path d="M60.87 0a19.13 19.13 0 00-17.18 27.546l-1.913 8.598a1.74 1.74 0 002.077 2.075l8.598-1.913A19.13 19.13 0 1060.87 0z" fill="#F8EFE6"/><path d="M67.826 20.87H62.61v5.217a1.74 1.74 0 01-3.479 0V20.87h-5.217a1.74 1.74 0 110-3.479h5.217v-5.217a1.74 1.74 0 113.479 0v5.217h5.217a1.74 1.74 0 010 3.479z" fill="#0098E8"/></g></svg>