<svg xmlns="http://www.w3.org/2000/svg" width="44" height="40"><g fill="none"><path d="M21.905 30.476a.955.955 0 01-.512-.149L.441 16.994a.953.953 0 01.085-1.655L21.905 1.905l21.378 13.434a.953.953 0 01.086 1.655L22.416 30.327a.955.955 0 01-.511.15z" fill="#50341D"/><path d="M21.905 16.84l-.608-.502c-.814-.673-7.964-6.714-7.964-11.137 0-2.916 2.22-5.201 5.055-5.201 1.343 0 2.59.497 3.517 1.368A5.108 5.108 0 0125.42 0c2.835 0 5.055 2.285 5.055 5.201 0 4.423-7.15 10.464-7.964 11.137l-.607.503z" fill="#0096DB"/><path d="M42.857 40a.96.96 0 01-.24-.03l-21.905-5.715.24-6.636L43.81 16.19v22.858a.953.953 0 01-.953.952z" fill="#F8EFE6"/><path d="M42.857 40H.952A.952.952 0 010 39.048V16.19l43.313 22.021A.952.952 0 0142.857 40z" fill="#EEBC99"/></g></svg>