<svg width="18" height="17" fill="none" xmlns="http://www.w3.org/2000/svg"><path d="M17.325 3.402V.68c0-.376-.322-.68-.72-.68H1.395c-.398 0-.72.304-.72.68v2.722C.299 3.423 0 3.72 0 4.08v2.799a3.582 3.582 0 00.324 1.496c.097.216.216.42.351.614v7.331c0 .374.322.68.72.68H7.56v-3.74h2.88V17h6.165c.398 0 .72-.304.72-.68V8.989A3.662 3.662 0 0018 6.879V4.08c0-.361-.3-.657-.675-.678zm-1.62 12.07H11.88V12.58c0-.376-.322-.68-.72-.68H6.84c-.398 0-.72.304-.72.68v2.892H2.295v-5.147a4.264 4.264 0 001.786.385 4.273 4.273 0 002.455-.77.015.015 0 01.014 0 4.264 4.264 0 002.455.77 4.273 4.273 0 002.454-.77.015.015 0 01.014 0 4.264 4.264 0 002.455.77 4.273 4.273 0 001.786-.385v5.147h-.009zm0-12.072H2.295V1.53h13.41V3.4z" fill="#50341D"/></svg>