<svg width="19" height="19" fill="none" xmlns="http://www.w3.org/2000/svg"><g clip-path="url(#clip0)"><path d="M19 9.558C19 4.278 14.747 0 9.5 0 4.252 0-.002 4.279-.002 9.559c0 4.77 3.475 8.725 8.016 9.442v-6.68h-2.41V9.56h2.412V7.452c0-2.395 1.42-3.718 3.589-3.718 1.04 0 2.127.186 2.127.186v2.351h-1.199c-1.179 0-1.547.738-1.547 1.494v1.793h2.634l-.42 2.762h-2.215V19C15.525 18.283 19 14.33 19 9.558z" fill="#fff"/></g><defs><clipPath id="clip0"><path fill="#fff" d="M0 0h19v19H0z"/></clipPath></defs></svg>