<svg width="8" height="8" fill="none" xmlns="http://www.w3.org/2000/svg"><path d="M4 .5a3.5 3.5 0 100 7 3.5 3.5 0 000-7zm0 6.406a2.907 2.907 0 11.001-5.813A2.907 2.907 0 014 6.906z" fill="#000" fill-opacity=".8"/><path d="M4 1.094a2.907 2.907 0 10.001 5.813A2.907 2.907 0 004 1.094zm.25 4.593a.063.063 0 01-.063.063h-.375a.063.063 0 01-.062-.063V3.563c0-.034.028-.062.063-.062h.374c.035 0 .063.028.063.063v2.124zM4 3a.375.375 0 010-.75A.375.375 0 014 3z" fill="#000" fill-opacity=".1"/><path d="M3.625 2.625a.375.375 0 10.75 0 .375.375 0 00-.75 0zm.563.875h-.375a.063.063 0 00-.063.063v2.124c0 .035.028.063.063.063h.374a.063.063 0 00.063-.063V3.563a.063.063 0 00-.063-.062z" fill="#000" fill-opacity=".8"/></svg>