<svg xmlns="http://www.w3.org/2000/svg" xmlns:xlink="http://www.w3.org/1999/xlink" width="54" height="61"><defs><linearGradient x1="61.692%" y1="100.173%" x2="54.748%" y2="70.382%" id="b"><stop stop-color="#DA304A" offset="0%"/><stop stop-color="#DA304A" offset="100%"/></linearGradient><linearGradient x1="54.748%" y1="70.382%" x2="38.303%" y2="-.175%" id="e"><stop stop-color="#DA304A" offset="0%"/><stop stop-color="#F3F2F1" offset="100%"/></linearGradient><path d="M3.317 14.33c6.204 0 11.264 4.84 11.264 10.775 0 4.94-3.652 9.12-8.404 10.383v25.087H.023L.011 30.008c3.71 2.28 9.394-.176 9.394-4.903 0-3.208-2.735-5.824-6.088-5.824a6.249 6.249 0 00-3.279.92v-5.403a11.672 11.672 0 013.279-.468zM7.34 36.64h.055c5.203-1.55 8.707-6.059 8.707-11.534 0-6.736-5.744-12.23-12.786-12.23-1.133 0-2.232.142-3.279.409v-5.96a19.67 19.67 0 013.279-.274c10.396 0 18.875 8.11 18.875 18.055 0 6.378-3.49 12.002-8.736 15.215v20.255H7.341V36.639zm12.813 7.616v8.46H14.62V41.4h-.053c5.668-3.472 9.146-9.403 9.146-16.295 0-10.746-9.163-19.51-20.397-19.51-1.116 0-2.21.087-3.279.254V.259a27.434 27.434 0 013.28-.198c14.42 0 26.181 11.25 26.181 25.043 0 7.669-3.637 14.55-9.344 19.15z" id="a"/><path d="M3.317 14.33c6.204 0 11.264 4.84 11.264 10.775 0 4.94-3.652 9.12-8.404 10.383v25.087H.023L.011 30.008c3.71 2.28 9.394-.176 9.394-4.903 0-3.208-2.735-5.824-6.088-5.824a6.249 6.249 0 00-3.279.92v-5.403a11.672 11.672 0 013.279-.468zM7.34 36.64h.055c5.203-1.55 8.707-6.059 8.707-11.534 0-6.736-5.744-12.23-12.786-12.23-1.133 0-2.232.142-3.279.409v-5.96a19.67 19.67 0 013.279-.274c10.396 0 18.875 8.11 18.875 18.055 0 6.378-3.49 12.002-8.736 15.215v20.255H7.341V36.639zm12.813 7.616v8.46H14.62V41.4h-.053c5.668-3.472 9.146-9.403 9.146-16.295 0-10.746-9.163-19.51-20.397-19.51-1.116 0-2.21.087-3.279.254V.259a27.434 27.434 0 013.28-.198c14.42 0 26.181 11.25 26.181 25.043 0 7.669-3.637 14.55-9.344 19.15z" id="d"/></defs><g fill="none" fill-rule="evenodd"><path d="M21.127 52.696h2.18v-2.294h1.26c1.556 0 2.56-.825 2.56-2.003 0-.716-.349-1.297-1.014-1.668-.45-.245-1.096-.327-1.956-.327h-3.03v6.292zm2.18-3.635v-1.233h.717c.522 0 .799.217.799.616 0 .38-.338.617-.932.617h-.584zm4.546 3.635h2.181V50.33h2.324v-1.414h-2.324v-1.043h2.96v-1.469h-5.14v6.292m7.023-2.62l.573-1.831.574 1.831h-1.147zm-2.551 2.62h1.753l.399-1.26h1.914l.42 1.26h2.242l-2.232-6.292H34.51l-2.183 6.292zm7.21 0h1.781l-.082-3.79 2.59 3.79h1.762v-6.292h-1.802l.092 3.318-2.283-3.318h-2.058v6.292m7.228 0h2.642c.972 0 1.73-.172 2.355-.58.788-.526 1.32-1.487 1.32-2.566 0-1.206-.573-2.194-1.535-2.729-.512-.28-1.188-.417-2.048-.417h-2.734v6.292zm2.181-1.469v-3.372h.553c.768 0 1.28.625 1.28 1.668 0 1.06-.553 1.704-1.342 1.704h-.491zM15.024 60.65h1.986v-1.551l.696-.88 1.29 2.43h2.355l-2.232-3.97 1.792-2.322h-1.997l-1.904 2.62v-2.62h-1.986v6.292m9.921-4.949c.594 0 .89.199.89.616 0 .344-.327.616-.86.616h-1.033V55.7h1.003zm-3.164 4.95h2.16v-2.385h.748l1.055 2.384h2.334l-1.28-2.747c.799-.254 1.239-.852 1.239-1.704 0-1.233-.932-1.84-2.785-1.84h-3.47v6.291zm7.085 0h5.396v-1.47h-3.317v-1.07h2.693v-1.36h-2.693v-.924h3.276v-1.469h-5.355v6.292m6.379.001h2.642c.972 0 1.73-.173 2.354-.581.789-.526 1.321-1.487 1.321-2.566 0-1.206-.573-2.194-1.536-2.729-.512-.28-1.187-.417-2.047-.417h-2.734v6.292zm2.18-1.47v-3.372h.554c.768 0 1.28.625 1.28 1.668 0 1.06-.553 1.705-1.342 1.705h-.491zm5.028 1.47h2.222v-6.293h-2.222zm6.44-4.824h1.403v-1.469h-4.987v1.469h1.403v4.823h2.181v-4.823" fill="#FFF"/><mask id="c" fill="#fff"><use xlink:href="#a"/></mask><path d="M3.317 14.33c6.204 0 11.264 4.84 11.264 10.775 0 4.94-3.652 9.12-8.404 10.383v25.087H.023L.011 30.008c3.71 2.28 9.394-.176 9.394-4.903 0-3.208-2.735-5.824-6.088-5.824a6.249 6.249 0 00-3.279.92v-5.403a11.672 11.672 0 013.279-.468zM7.34 36.64h.055c5.203-1.55 8.707-6.059 8.707-11.534 0-6.736-5.744-12.23-12.786-12.23-1.133 0-2.232.142-3.279.409v-5.96a19.67 19.67 0 013.279-.274c10.396 0 18.875 8.11 18.875 18.055 0 6.378-3.49 12.002-8.736 15.215v20.255H7.341V36.639zm12.813 7.616v8.46H14.62V41.4h-.053c5.668-3.472 9.146-9.403 9.146-16.295 0-10.746-9.163-19.51-20.397-19.51-1.116 0-2.21.087-3.279.254V.259a27.434 27.434 0 013.28-.198c14.42 0 26.181 11.25 26.181 25.043 0 7.669-3.637 14.55-9.344 19.15z" fill="url(#b)" mask="url(#c)"/><mask id="f" fill="#fff"><use xlink:href="#d"/></mask><path d="M3.317 14.33c6.204 0 11.264 4.84 11.264 10.775 0 4.94-3.652 9.12-8.404 10.383v25.087H.023L.011 30.008c3.71 2.28 9.394-.176 9.394-4.903 0-3.208-2.735-5.824-6.088-5.824a6.249 6.249 0 00-3.279.92v-5.403a11.672 11.672 0 013.279-.468zM7.34 36.64h.055c5.203-1.55 8.707-6.059 8.707-11.534 0-6.736-5.744-12.23-12.786-12.23-1.133 0-2.232.142-3.279.409v-5.96a19.67 19.67 0 013.279-.274c10.396 0 18.875 8.11 18.875 18.055 0 6.378-3.49 12.002-8.736 15.215v20.255H7.341V36.639zm12.813 7.616v8.46H14.62V41.4h-.053c5.668-3.472 9.146-9.403 9.146-16.295 0-10.746-9.163-19.51-20.397-19.51-1.116 0-2.21.087-3.279.254V.259a27.434 27.434 0 013.28-.198c14.42 0 26.181 11.25 26.181 25.043 0 7.669-3.637 14.55-9.344 19.15z" fill="url(#e)" mask="url(#f)"/></g></svg>