<svg width="25" height="17" fill="none" xmlns="http://www.w3.org/2000/svg"><path d="M23.5 2.512a2.786 2.786 0 00-.765-1.27A3.05 3.05 0 0021.397.5C19.519.005 11.995.005 11.995.005a76.624 76.624 0 00-9.39.47c-.502.14-.962.4-1.338.76-.37.356-.638.795-.778 1.276A29.09 29.09 0 000 8.005c-.012 1.841.15 3.68.488 5.494.137.479.404.916.775 1.269.37.353.833.608 1.34.743 1.904.494 9.39.494 9.39.494a76.721 76.721 0 009.403-.47 3.05 3.05 0 001.338-.742 2.78 2.78 0 00.765-1.27c.345-1.811.512-3.651.5-5.495a26.47 26.47 0 00-.5-5.517v.001zM9.604 11.429V4.582l6.26 3.424-6.26 3.423z" fill="#fff"/><path d="M12 0C9.825 0 9.554.01 8.703.046 7.85.088 7.271.221 6.761.42a3.923 3.923 0 00-1.417.924A3.878 3.878 0 004.42 2.76c-.198.51-.33 1.088-.373 1.942-.038.852-.046 1.122-.046 3.297s.01 2.446.046 3.297c.042.852.175 1.432.373 1.942.201.534.517 1.017.924 1.417.399.408.883.724 1.417.924.51.195 1.09.33 1.942.372.852.039 1.122.047 3.297.047s2.445-.01 3.296-.046c.852-.043 1.433-.178 1.943-.373a3.924 3.924 0 001.416-.925 3.86 3.86 0 00.925-1.416c.196-.51.33-1.09.373-1.942.038-.852.046-1.122.046-3.297s-.01-2.446-.046-3.296c-.043-.853-.178-1.436-.373-1.943a3.923 3.923 0 00-.924-1.416 3.859 3.859 0 00-1.417-.925c-.51-.198-1.09-.33-1.943-.372C14.445.007 14.175 0 12 0zm0 1.44c2.136 0 2.39.01 3.235.046.778.037 1.202.167 1.483.277.349.128.663.333.922.599.266.257.47.572.596.919.11.281.24.705.277 1.484.036.844.046 1.1.046 3.235 0 2.134-.01 2.39-.049 3.234-.042.778-.172 1.203-.282 1.484-.151.376-.32.638-.599.922-.26.264-.575.467-.922.596-.278.11-.708.24-1.49.276-.848.037-1.098.047-3.239.047s-2.39-.01-3.24-.05c-.779-.042-1.208-.171-1.49-.281a2.51 2.51 0 01-.919-.6 2.402 2.402 0 01-.599-.921c-.112-.279-.24-.709-.281-1.49-.029-.838-.042-1.099-.042-3.23 0-2.13.013-2.39.042-3.239.041-.782.17-1.21.281-1.49.138-.38.318-.64.599-.921a2.38 2.38 0 01.92-.6c.281-.11.7-.24 1.481-.279.849-.03 1.099-.041 3.237-.041L12 1.44zm0 2.454a4.105 4.105 0 00-3.794 5.678 4.106 4.106 0 107.588-3.144A4.106 4.106 0 0012 3.894zm0 6.772A2.665 2.665 0 019.333 8 2.665 2.665 0 0112 5.333 2.665 2.665 0 0114.666 8 2.665 2.665 0 0112 10.666zm5.232-6.937a.962.962 0 01-1.921.002.96.96 0 011.921-.002z" fill="#fff"/><path d="M18.708 4.627a1.754 1.754 0 00-1.238-1.24C16.378 3.095 12 3.095 12 3.095s-4.378 0-5.47.292a1.752 1.752 0 00-1.238 1.239C5 5.719 5 8 5 8s0 2.281.292 3.373a1.754 1.754 0 001.238 1.24c1.092.293 5.47.293 5.47.293s4.378 0 5.47-.293a1.752 1.752 0 001.238-1.24C19 10.281 19 8 19 8s0-2.281-.292-3.373zm-8.099 5.467V5.906l3.625 2.078-3.625 2.11z" fill="#fff"/></svg>