<svg xmlns="http://www.w3.org/2000/svg" width="99" height="37" fill="none"><path d="M37.06 16.948h-1.903v9.144h6.024v-1.297h-4.122v-7.848m.285-11.754h-1.903v9.146h6.024V13.04h-4.12V5.193m-7.601 5.03h3.127V8.998h-3.127V6.446h3.812V5.193h-5.714v9.146h6.005V13.04h-4.103v-2.817m-6.228 1.624L22.02 5.193h-1.587l-1.575 6.691-1.67-6.69h-1.797l2.28 9.145h1.817l1.476-6.273 1.409 6.273h1.816l2.397-9.146H25.27l-1.754 6.654m20.902 10.131h3.126v-1.225h-3.126v-2.55h3.813v-1.255h-5.715v9.144h6.004v-1.297h-4.102v-2.817M2.89 13.2c0 .632-.082 1.068-.246 1.311-.164.243-.466.365-.902.365a4.142 4.142 0 01-1.527-.291l.013 1.36a6.675 6.675 0 001.643.223c1.039 0 1.786-.25 2.244-.743.457-.495.686-1.304.686-2.429V5.193H2.89V13.2zm41.814-8.007H42.8v9.146h1.904V5.193zm-32.168 5.741c0 .831-.139 1.435-.418 1.81-.277.374-.727.562-1.35.562-.65 0-1.121-.197-1.415-.59-.292-.393-.437-1.033-.437-1.92V5.194H7.012v5.597c0 .809.088 1.438.262 1.888.177.452.484.842.925 1.172.637.477 1.482.716 2.533.716.98 0 1.761-.225 2.342-.674.424-.325.717-.709.877-1.152.161-.442.24-1.087.24-1.93V5.192h-1.655v5.74zm44.291-1.589h-.441V6.446h.661c1.232 0 1.85.409 1.85 1.225 0 1.116-.693 1.674-2.07 1.674zm3.505-.343a2.69 2.69 0 00.473-1.54c0-1.513-.928-2.269-2.786-2.269h-3.424v9.146h1.791V10.6h1.05l2.27 3.739h2.316l-2.992-4.272a3.028 3.028 0 001.302-1.065m28.493 13.686c0 .831-.139 1.435-.417 1.81-.277.376-.728.561-1.352.561-.65 0-1.12-.195-1.412-.589-.292-.393-.44-1.033-.44-1.919v-5.604h-1.901v5.599c0 .807.084 1.436.261 1.888.176.45.483.84.925 1.17.638.478 1.483.716 2.532.716.982 0 1.76-.224 2.343-.673.421-.326.715-.71.877-1.152.16-.442.241-1.087.241-1.93v-5.618h-1.657v5.741zm8.967-.606c-.335-.415-.942-.87-1.824-1.365l-.655-.364c-.49-.276-.823-.51-1-.698a.938.938 0 01-.267-.662c0-.304.126-.551.38-.738.254-.189.59-.281 1.012-.281.542 0 1.282.173 2.217.524v-1.463c-.914-.211-1.735-.317-2.464-.317-.912 0-1.644.23-2.198.687-.554.458-.831 1.062-.831 1.817 0 .563.17 1.057.508 1.479.337.423.914.864 1.735 1.325l.611.34c.496.28.832.523 1.008.726.178.204.264.454.264.75 0 .376-.138.673-.422.89-.282.22-.67.327-1.159.327-.7 0-1.542-.205-2.527-.617v1.57c.973.206 1.826.308 2.558.308 1.11 0 1.98-.24 2.609-.722.628-.482.945-1.147.945-1.995 0-.598-.167-1.105-.5-1.521zm-47.678 4.01h1.905v-9.144h-1.905v9.144m25.746-3.658l1.423-3.646 1.42 3.646h-2.842zm.755-5.486l-3.559 9.144h1.386l.952-2.44h3.78l.951 2.44h1.954l-3.56-9.144h-1.904m-27.716-6.725h3.126V8.998h-3.126V6.446h3.81V5.193h-5.713v9.146H53V13.04h-4.102v-2.817m11.097 10.439h-3.78v-3.714H54.31v9.144h1.903v-4.171h3.781v4.171h1.902v-9.144h-1.902v3.714zm10.597-1.066c-.245 0-.486-.024-.723-.061v1.127h-3.78v-3.714h-1.903v9.144h1.903v-4.171h3.78v4.171h1.903v-6.636c-.404.09-.799.14-1.18.14z" fill="#fff"/><path d="M75.176 15.783a4.68 4.68 0 01-1.496 1.04c-1.145.517-2.119.62-2.922.307-.802-.312-1.43-.973-1.888-1.983a3.418 3.418 0 01-.323-1.393 3.987 3.987 0 01.22-1.354c.146-.446.357-.893.628-1.338.27-.446.564-.89.88-1.329a16.47 16.47 0 002.684 2.757 11.52 11.52 0 003.21 1.87 6.384 6.384 0 01-.993 1.423zM69.348 5.087c-.454-1.01-.648-1.779-.58-2.31.074-.534.364-.915.881-1.148.448-.203.847-.188 1.196.047.348.235.63.586.843 1.057.456 1.01.583 1.933.379 2.765a7.528 7.528 0 01-1.078 2.412 16.634 16.634 0 01-1.641-2.823zm14.841 5.366c-.142.01-.221.087-.24.231-.09.337-.248.658-.474.964-.228.304-.566.559-1.015.76a6.873 6.873 0 01-2.595.628 7.689 7.689 0 01-2.538-.332 19.86 19.86 0 00.431-2c.112-.656.26-1.268.448-1.84a6.411 6.411 0 01.711-1.517c.29-.442.7-.783 1.238-1.025.426-.193.826-.28 1.202-.26.374.021.704.114.994.28.142.071.243.058.307-.039a.3.3 0 00.022-.313c-.232-.517-.6-.91-1.101-1.184-.503-.271-1.034-.282-1.596-.028-.628.283-1.106.702-1.436 1.257a7.297 7.297 0 00-.778 1.91c-.185.72-.346 1.48-.468 2.278-.125.8-.286 1.582-.48 2.343a11.224 11.224 0 01-2.974-1.693 13.904 13.904 0 01-2.51-2.553 45.62 45.62 0 001.053-1.569 7.688 7.688 0 00.798-1.637 5.43 5.43 0 00.3-1.716c.005-.583-.137-1.2-.432-1.85-.273-.606-.662-1.03-1.165-1.277-.501-.246-1.09-.217-1.763.088a2.997 2.997 0 00-1.241 1.067 5.097 5.097 0 00-.724 1.624 5.769 5.769 0 00-.147 1.869c.052.65.2 1.247.443 1.786a15.77 15.77 0 001.5 2.601 82.716 82.716 0 01-1.39 1.724 8.823 8.823 0 00-1.133 1.747 5.363 5.363 0 00-.528 1.878c-.058.65.08 1.342.414 2.083.486 1.077 1.23 1.753 2.233 2.029 1.003.275 2.12.137 3.353-.42 1.033-.467 1.843-1.022 2.43-1.667a7.426 7.426 0 001.368-2.117 7.268 7.268 0 002.54.371c.867-.024 1.724-.231 2.579-.616.876-.395 1.511-.9 1.911-1.512.397-.611.61-1.276.637-1.99.02-.253-.04-.374-.184-.363M37.06 16.866h-1.905v9.155h6.031v-1.298h-4.127v-7.857m.285-11.77H35.44v9.157h6.031v-1.3h-4.126V5.096zm-7.609 5.036h3.131V8.907h-3.131V6.351h3.817V5.096H27.83v9.157h6.012v-1.3h-4.107v-2.821m-6.236 1.626l-1.497-6.662h-1.59l-1.577 6.7-1.672-6.7h-1.8l2.283 9.157h1.82l1.478-6.28 1.41 6.28h1.819l2.4-9.157h-1.318l-1.756 6.662m20.929 10.144h3.13v-1.226h-3.13v-2.554h3.817v-1.256h-5.722v9.155h6.012v-1.298h-4.107v-2.82zM2.847 13.114c0 .631-.081 1.068-.246 1.312-.165.243-.467.365-.903.365a4.136 4.136 0 01-1.529-.292l.012 1.363a6.691 6.691 0 001.646.222c1.04 0 1.788-.248 2.246-.743.458-.495.687-1.306.687-2.431V5.095H2.847v8.018zm41.867-8.018h-1.907v9.157h1.907V5.096zm-32.209 5.748c0 .833-.139 1.437-.418 1.812-.278.375-.729.562-1.352.562-.65 0-1.122-.196-1.417-.59-.291-.393-.438-1.033-.438-1.92V5.096H6.974V10.7c0 .81.089 1.44.263 1.89.176.453.484.844.926 1.174.638.478 1.483.717 2.536.717.982 0 1.763-.225 2.345-.674.424-.327.717-.71.877-1.154.161-.443.242-1.088.242-1.934V5.098h-1.658v5.747zM60.361 8.91a2.69 2.69 0 00.474-1.542c0-1.515-.93-2.272-2.79-2.272h-3.427v9.157h1.792V10.51h1.053l2.272 3.743h2.319l-2.996-4.276a3.035 3.035 0 001.303-1.066zm-3.509.343h-.442V6.351h.662c1.233 0 1.853.408 1.853 1.226 0 1.117-.695 1.676-2.073 1.676m32.038 13.36c0 .833-.138 1.437-.418 1.813-.278.375-.728.562-1.353.562-.65 0-1.123-.196-1.414-.59-.292-.394-.441-1.035-.441-1.922v-5.61H83.36v5.606c0 .807.085 1.436.262 1.89.175.45.483.84.925 1.172.638.477 1.485.716 2.536.716.983 0 1.763-.224 2.345-.674.423-.326.716-.71.879-1.154.16-.442.242-1.087.242-1.932v-5.624h-1.66v5.747m8.98-.607c-.336-.416-.944-.871-1.827-1.367l-.656-.364c-.49-.276-.825-.51-1.002-.699a.942.942 0 01-.266-.663c0-.305.126-.55.38-.739.255-.188.591-.281 1.013-.281.543 0 1.285.174 2.22.525v-1.466c-.914-.21-1.737-.316-2.467-.316-.913 0-1.646.23-2.2.688-.555.458-.833 1.063-.833 1.818 0 .565.17 1.06.51 1.481.336.424.913.866 1.736 1.328l.612.34c.496.28.833.523 1.009.727.179.205.265.455.265.751 0 .376-.138.673-.422.892-.284.218-.671.327-1.16.327-.702 0-1.546-.206-2.532-.619v1.572c.974.207 1.828.31 2.563.31 1.11 0 1.98-.242 2.61-.724.63-.483.947-1.149.947-1.998 0-.599-.167-1.106-.5-1.523M50.13 26.021h1.907v-9.155H50.13v9.155zm26.535-9.155l-3.563 9.155h1.387l.953-2.444h3.785l.952 2.444h1.955l-3.563-9.155h-1.906zm-.756 5.492l1.425-3.65 1.422 3.65h-2.847zM48.914 10.132h3.13V8.907h-3.13V6.351h3.816V5.096h-5.722v9.157h6.012v-1.3h-4.106v-2.821m11.11 10.452h-3.786v-3.718h-1.905v9.155h1.905v-4.176h3.786v4.177h1.905v-9.156h-1.905v3.718z" fill="#fff"/><path d="M70.633 19.517a4.82 4.82 0 01-.723-.06v1.127h-3.784v-3.718h-1.907v9.155h1.907v-4.176h3.784v4.177h1.906v-6.644c-.406.09-.8.14-1.183.14z" fill="#fff"/><path d="M84.248 10.363c-.142.01-.221.087-.241.232-.09.336-.248.658-.474.964-.23.304-.566.56-1.016.762a6.907 6.907 0 01-2.599.628 7.695 7.695 0 01-2.54-.333c.18-.677.326-1.344.43-2.002.113-.657.26-1.27.45-1.842.188-.573.425-1.08.711-1.52.29-.441.702-.783 1.24-1.026.427-.193.827-.28 1.204-.26.374.022.703.114.995.28.142.072.244.059.307-.039a.3.3 0 00.023-.313 2.48 2.48 0 00-1.103-1.186c-.504-.271-1.035-.282-1.598-.028-.629.284-1.108.704-1.437 1.26a7.332 7.332 0 00-.78 1.911 23.526 23.526 0 00-.468 2.281 24.914 24.914 0 01-.482 2.346 11.198 11.198 0 01-2.978-1.695 13.925 13.925 0 01-2.513-2.556c.362-.514.713-1.037 1.055-1.571a7.685 7.685 0 00.8-1.64 5.43 5.43 0 00.299-1.717c.005-.584-.136-1.202-.43-1.853C72.826.84 72.437.415 71.935.168c-.503-.246-1.093-.218-1.766.088a2.979 2.979 0 00-1.242 1.069 5.08 5.08 0 00-.726 1.625 5.787 5.787 0 00-.147 1.872 5.36 5.36 0 00.443 1.789A16.018 16.018 0 0070 9.215a82.26 82.26 0 01-1.394 1.725 8.92 8.92 0 00-1.132 1.75 5.38 5.38 0 00-.529 1.88c-.059.652.08 1.344.414 2.085.487 1.079 1.232 1.757 2.235 2.032 1.005.276 2.123.138 3.359-.42 1.034-.467 1.843-1.023 2.432-1.67a7.442 7.442 0 001.37-2.12c.832.276 1.678.4 2.544.373a6.708 6.708 0 002.58-.617c.879-.396 1.515-.902 1.915-1.515.397-.61.61-1.277.638-1.992.02-.253-.04-.375-.185-.363zM69.388 4.99c-.454-1.01-.65-1.781-.58-2.314.074-.534.364-.915.881-1.148.45-.203.85-.188 1.198.046.35.236.63.587.844 1.058.457 1.012.585 1.936.38 2.77a7.55 7.55 0 01-1.08 2.414A16.494 16.494 0 0169.39 4.99zm5.837 10.71a4.693 4.693 0 01-1.5 1.04c-1.145.519-2.12.621-2.925.308-.802-.312-1.431-.975-1.89-1.985a3.412 3.412 0 01-.323-1.395 3.974 3.974 0 01.22-1.356c.147-.446.358-.894.629-1.34.27-.446.565-.89.88-1.33a16.491 16.491 0 002.688 2.76 11.502 11.502 0 003.215 1.873 6.455 6.455 0 01-.994 1.425zM54.664 28.759c0-.088-.045-.132-.135-.132-.192 0-.508.249-.948.747l-.415.491-1.236 1.499a5.212 5.212 0 001.36-.807 5.63 5.63 0 00.99-1.01c.256-.344.384-.606.384-.788zm-2.45 4.373a2.35 2.35 0 01-.221.246c-.305.343-.646.557-1.024.64a1.287 1.287 0 01-.276.035.508.508 0 01-.202-.037.417.417 0 01-.138-.095.428.428 0 01-.108-.3c0-.12.02-.243.059-.367a2.68 2.68 0 01.17-.4c.073-.145.163-.3.27-.466l.349-.543.322-.457c.125-.166.26-.34.409-.52l.459-.543c.766-.876 1.397-1.435 1.893-1.674a.818.818 0 01.353-.097c.169 0 .253.063.253.189 0 .125-.032.264-.096.414a2.443 2.443 0 01-.273.471c-.12.165-.265.334-.438.506-.172.171-.368.34-.588.503-.466.348-.99.637-1.57.865-.515.63-.852 1.073-1.011 1.33-.16.258-.26.443-.305.556a.819.819 0 00-.066.284c0 .196.087.294.26.294.374 0 .72-.167 1.038-.502.109-.11.206-.242.291-.395.118-.145.193-.36.229-.646.006-.058.01-.094.01-.108l-.042-.3c.014-.176.085-.264.215-.264.159 0 .222.138.19.412a1.79 1.79 0 01-.118.433c-.064.166-.13.3-.197.405a.132.132 0 00-.005.05.573.573 0 01.002.053c0 .115.064.176.193.184.127 0 .293-.094.498-.281.137-.124.257-.256.36-.394l.073.06c-.04.04-.093.1-.16.179a2.556 2.556 0 01-.231.232c-.207.193-.394.29-.557.29-.164 0-.254-.08-.27-.242" fill="#fff"/><path d="M54.664 28.759c0-.088-.045-.132-.135-.132-.192 0-.508.249-.948.747l-.415.491-1.236 1.499a5.212 5.212 0 001.36-.807 5.63 5.63 0 00.99-1.01c.256-.344.384-.606.384-.788v0zm-2.45 4.373a2.35 2.35 0 01-.221.246c-.305.343-.646.557-1.024.64a1.287 1.287 0 01-.276.035.508.508 0 01-.202-.037.417.417 0 01-.138-.095.428.428 0 01-.108-.3c0-.12.02-.243.059-.367a2.68 2.68 0 01.17-.4c.073-.145.163-.3.27-.466l.349-.543.322-.457c.125-.166.26-.34.409-.52l.459-.543c.766-.876 1.397-1.435 1.893-1.674a.818.818 0 01.353-.097c.169 0 .253.063.253.189 0 .125-.032.264-.096.414a2.443 2.443 0 01-.273.471c-.12.165-.265.334-.438.506-.172.171-.368.34-.588.503-.466.348-.99.637-1.57.865-.515.63-.852 1.073-1.011 1.33-.16.258-.26.443-.305.556a.819.819 0 00-.066.284c0 .196.087.294.26.294.374 0 .72-.167 1.038-.502.109-.11.206-.242.291-.395.118-.145.193-.36.229-.646.006-.058.01-.094.01-.108l-.042-.3c.014-.176.085-.264.215-.264.159 0 .222.138.19.412a1.79 1.79 0 01-.118.433c-.064.166-.13.3-.197.405a.132.132 0 00-.005.05.573.573 0 01.002.053c0 .115.064.176.193.184.127 0 .293-.094.498-.281.137-.124.257-.256.36-.394l.073.06c-.04.04-.093.1-.16.179a2.556 2.556 0 01-.231.232c-.207.193-.394.29-.557.29-.164 0-.254-.08-.27-.242v0z" stroke="#fff" stroke-width=".154" stroke-miterlimit="10"/><path d="M53.373 35.025c-1.16.495-1.858.89-2.093 1.183a.49.49 0 00-.125.301c0 .026.016.055.047.088.03.034.097.05.2.05a.994.994 0 00.336-.067c.124-.045.261-.126.414-.243.279-.223.686-.66 1.221-1.312zm-.353-1.25c0 .106.068.16.204.16.136 0 .287-.035.452-.106a2.58 2.58 0 00.486-.275 4.1 4.1 0 00.848-.803 69 69 0 00.73-.84l.186-.232a1.315 1.315 0 00.465.01l-1.205 1.485-.612.82-.526.685c.595-.287 1.052-.571 1.37-.855a5.41 5.41 0 00.585-.61l.498-.6.073.058-.436.515a6.298 6.298 0 01-.647.682 5.15 5.15 0 01-.474.37c-.272.18-.636.377-1.09.591-.43.538-.752.912-.97 1.122-.219.21-.39.36-.518.448a2.03 2.03 0 01-.37.209 1.81 1.81 0 01-.724.132c-.14 0-.234-.05-.28-.149a.302.302 0 01-.02-.13c0-.06.038-.145.115-.252.078-.107.21-.227.396-.358.374-.263 1.02-.588 1.939-.976l1.408-1.786-.038-.013a3.188 3.188 0 01-.672.56c-.426.26-.768.388-1.024.388-.129 0-.226-.026-.29-.078a.234.234 0 01-.097-.19.869.869 0 01.104-.424c.084-.164.247-.415.487-.751.107-.131.234-.273.385-.425l.48-.489.163.018a2.74 2.74 0 00.38-.007 5.813 5.813 0 00-.46.45l-.245.276c-.51.566-.797.895-.862.99-.13.184-.194.311-.194.38" fill="#fff"/><path d="M53.373 35.025c-1.16.495-1.858.89-2.093 1.183a.49.49 0 00-.125.301c0 .026.016.055.047.088.03.034.097.05.2.05a.994.994 0 00.336-.067c.124-.045.261-.126.414-.243.279-.223.686-.66 1.221-1.312v0zm-.353-1.25c0 .106.068.16.204.16.136 0 .287-.035.452-.106a2.58 2.58 0 00.486-.275 4.1 4.1 0 00.848-.803 69 69 0 00.73-.84l.186-.232a1.315 1.315 0 00.465.01l-1.205 1.485-.612.82-.526.685c.595-.287 1.052-.571 1.37-.855a5.41 5.41 0 00.585-.61l.498-.6.073.058-.436.515a6.298 6.298 0 01-.647.682 5.15 5.15 0 01-.474.37c-.272.18-.636.377-1.09.591-.43.538-.752.912-.97 1.122-.219.21-.39.36-.518.448a2.03 2.03 0 01-.37.209 1.81 1.81 0 01-.724.132c-.14 0-.234-.05-.28-.149a.302.302 0 01-.02-.13c0-.06.038-.145.115-.252.078-.107.21-.227.396-.358.374-.263 1.02-.588 1.939-.976l1.408-1.786-.038-.013a3.188 3.188 0 01-.672.56c-.426.26-.768.388-1.024.388-.129 0-.226-.026-.29-.078a.234.234 0 01-.097-.19.869.869 0 01.104-.424c.084-.164.247-.415.487-.751.107-.131.234-.273.385-.425l.48-.489.163.018a2.74 2.74 0 00.38-.007 5.813 5.813 0 00-.46.45l-.245.276c-.51.566-.797.895-.862.99-.13.184-.194.311-.194.38v0z" stroke="#fff" stroke-width=".154" stroke-miterlimit="10"/><path d="M63.516 29.301c0-.124-.09-.187-.27-.187-.402 0-.924.281-1.568.842a7 7 0 00-1.06 1.152 4.1 4.1 0 00-.227.353 4.522 4.522 0 001.006-.386 8 8 0 00.9-.533 6.88 6.88 0 00.644-.504c.383-.339.575-.584.575-.737zm-.45 1.391c.055 0 .083.013.083.038 0 .021-.026.044-.078.068a.876.876 0 00-.185.128c-.072.06-.151.143-.24.248a5.486 5.486 0 00-.293.387l-.378.56c-.813 1.271-1.72 1.907-2.72 1.907-.226 0-.421-.049-.588-.147-.165-.098-.249-.215-.249-.351 0-.145.07-.237.211-.273a.402.402 0 01.115-.017.22.22 0 01.114.035.126.126 0 01.06.115.16.16 0 01-.06.127.23.23 0 01-.154.051.293.293 0 01-.148-.03v.02c0 .172.143.289.426.349.09.02.198.031.324.031.125 0 .26-.025.403-.076.143-.05.293-.135.45-.253.316-.242.681-.639 1.097-1.19a15.38 15.38 0 01.806-.947c-.667.477-1.202.715-1.606.715-.17 0-.285-.022-.345-.065-.11-.076-.162-.188-.162-.336 0-.042.005-.102.016-.183-.087.006-.188.01-.305.01-.248 0-.472-.056-.671-.166-.061-.03-.092-.056-.092-.076 0-.02.007-.031.023-.031.017 0 .044.01.084.034a1.576 1.576 0 00.325.125c.113.03.23.044.352.044.123 0 .222-.003.299-.01.084-.36.317-.74.698-1.142a4.947 4.947 0 011.24-.955c.479-.268.9-.401 1.262-.401.152 0 .26.024.323.072.064.05.095.133.095.252 0 .118-.052.255-.157.411a2.42 2.42 0 01-.445.48c-.394.34-.914.66-1.557.958a5 5 0 01-1.096.346c-.074.143-.11.244-.11.303s.003.1.012.12a.158.158 0 00.046.061c.048.04.122.06.223.06.1 0 .213-.02.34-.058.127-.038.272-.1.433-.185.34-.177.755-.458 1.248-.84.266-.215.443-.323.53-.323" fill="#fff"/><path d="M63.516 29.301c0-.124-.09-.187-.27-.187-.402 0-.924.281-1.568.842a7 7 0 00-1.06 1.152 4.1 4.1 0 00-.227.353 4.522 4.522 0 001.006-.386 8 8 0 00.9-.533 6.88 6.88 0 00.644-.504c.383-.339.575-.584.575-.737zm-.45 1.391c.055 0 .083.013.083.038 0 .021-.026.044-.078.068a.876.876 0 00-.185.128c-.072.06-.151.143-.24.248a5.486 5.486 0 00-.293.387l-.378.56c-.813 1.271-1.72 1.907-2.72 1.907-.226 0-.421-.049-.588-.147-.165-.098-.249-.215-.249-.351 0-.145.07-.237.211-.273a.402.402 0 01.115-.017.22.22 0 01.114.035.126.126 0 01.06.115.16.16 0 01-.06.127.23.23 0 01-.154.051.293.293 0 01-.148-.03v.02c0 .172.143.289.426.349.09.02.198.031.324.031.125 0 .26-.025.403-.076.143-.05.293-.135.45-.253.316-.242.681-.639 1.097-1.19a15.38 15.38 0 01.806-.947c-.667.477-1.202.715-1.606.715-.17 0-.285-.022-.345-.065-.11-.076-.162-.188-.162-.336 0-.042.005-.102.016-.183-.087.006-.188.01-.305.01-.248 0-.472-.056-.671-.166-.061-.03-.092-.056-.092-.076 0-.02.007-.031.023-.031.017 0 .044.01.084.034a1.576 1.576 0 00.325.125c.113.03.23.044.352.044.123 0 .222-.003.299-.01.084-.36.317-.74.698-1.142a4.947 4.947 0 011.24-.955c.479-.268.9-.401 1.262-.401.152 0 .26.024.323.072.064.05.095.133.095.252 0 .118-.052.255-.157.411a2.42 2.42 0 01-.445.48c-.394.34-.914.66-1.557.958a5 5 0 01-1.096.346c-.074.143-.11.244-.11.303s.003.1.012.12a.158.158 0 00.046.061c.048.04.122.06.223.06.1 0 .213-.02.34-.058.127-.038.272-.1.433-.185.34-.177.755-.458 1.248-.84.266-.215.443-.323.53-.323v0z" stroke="#fff" stroke-width=".154" stroke-miterlimit="10"/><path d="M63.111 32.89c.697-.245 1.145-.488 1.345-.73a.37.37 0 00.1-.236c0-.13-.06-.194-.18-.194-.211 0-.477.186-.795.558a5.972 5.972 0 00-.47.602zm1.06.828c-.146.094-.305.17-.474.23-.17.06-.33.09-.483.09a1.01 1.01 0 01-.348-.046.516.516 0 01-.195-.13c-.216-.235-.216-.582.004-1.042.094-.202.237-.388.428-.555.192-.167.361-.293.505-.375.282-.162.546-.243.794-.243.244 0 .372.077.383.229.016.247-.283.515-.899.806a7.893 7.893 0 01-.856.329c-.135.221-.203.402-.203.542 0 .139.037.238.108.297.073.058.18.088.32.088.139 0 .29-.03.452-.09a2.28 2.28 0 00.458-.229c.141-.092.27-.192.385-.3a5.189 5.189 0 00.525-.569 1.13 1.13 0 01.116-.137l.073.059c-.03.025-.076.077-.137.155-.061.08-.14.168-.232.268a5.79 5.79 0 01-.323.317 2.92 2.92 0 01-.401.306" fill="#fff"/><path d="M63.111 32.89c.697-.245 1.145-.488 1.345-.73a.37.37 0 00.1-.236c0-.13-.06-.194-.18-.194-.211 0-.477.186-.795.558a5.972 5.972 0 00-.47.602zm1.06.828c-.146.094-.305.17-.474.23-.17.06-.33.09-.483.09a1.01 1.01 0 01-.348-.046.516.516 0 01-.195-.13c-.216-.235-.216-.582.004-1.042.094-.202.237-.388.428-.555.192-.167.361-.293.505-.375.282-.162.546-.243.794-.243.244 0 .372.077.383.229.016.247-.283.515-.899.806a7.893 7.893 0 01-.856.329c-.135.221-.203.402-.203.542 0 .139.037.238.108.297.073.058.18.088.32.088.139 0 .29-.03.452-.09a2.28 2.28 0 00.458-.229c.141-.092.27-.192.385-.3a5.189 5.189 0 00.525-.569 1.13 1.13 0 01.116-.137l.073.059c-.03.025-.076.077-.137.155-.061.08-.14.168-.232.268a5.79 5.79 0 01-.323.317 2.92 2.92 0 01-.401.306v0z" stroke="#fff" stroke-width=".154" stroke-miterlimit="10"/><path d="M69.253 28.759c0-.088-.046-.132-.135-.132-.192 0-.508.249-.948.747l-.416.491-1.235 1.499a5.22 5.22 0 001.36-.807c.395-.318.724-.655.99-1.01.255-.344.384-.606.384-.788zm-2.45 4.373a2.39 2.39 0 01-.222.246c-.305.343-.645.557-1.025.64a1.268 1.268 0 01-.274.035.503.503 0 01-.202-.037.427.427 0 01-.14-.095.426.426 0 01-.106-.3c0-.12.02-.243.058-.367.04-.123.097-.257.17-.4.074-.145.163-.3.27-.466l.35-.543.321-.457c.125-.166.26-.34.409-.52l.46-.543c.765-.876 1.397-1.435 1.892-1.674a.818.818 0 01.354-.097c.168 0 .252.063.252.189 0 .125-.03.264-.095.414a2.552 2.552 0 01-.273.471 3.987 3.987 0 01-.438.506c-.173.171-.37.34-.588.503-.467.348-.99.637-1.57.865-.516.63-.852 1.073-1.011 1.33-.16.258-.262.443-.305.556a.81.81 0 00-.066.284c0 .196.087.294.26.294.374 0 .72-.167 1.038-.502a1.86 1.86 0 00.29-.395c.118-.145.194-.36.228-.646a.971.971 0 00.01-.108l-.041-.3c.014-.176.086-.264.215-.264.159 0 .222.138.19.412a1.715 1.715 0 01-.117.433c-.065.166-.13.3-.197.405a.132.132 0 00-.005.05l.001.053c0 .115.066.176.194.184.127 0 .293-.094.498-.281.137-.124.256-.256.36-.394l.073.06c-.04.04-.093.1-.161.179a2.492 2.492 0 01-.23.232c-.208.193-.394.29-.558.29-.163 0-.253-.08-.27-.242" fill="#fff"/><path d="M69.253 28.759c0-.088-.046-.132-.135-.132-.192 0-.508.249-.948.747l-.416.491-1.235 1.499a5.22 5.22 0 001.36-.807c.395-.318.724-.655.99-1.01.255-.344.384-.606.384-.788v0zm-2.45 4.373a2.39 2.39 0 01-.222.246c-.305.343-.645.557-1.025.64a1.268 1.268 0 01-.274.035.503.503 0 01-.202-.037.427.427 0 01-.14-.095.426.426 0 01-.106-.3c0-.12.02-.243.058-.367.04-.123.097-.257.17-.4.074-.145.163-.3.27-.466l.35-.543.321-.457c.125-.166.26-.34.409-.52l.46-.543c.765-.876 1.397-1.435 1.892-1.674a.818.818 0 01.354-.097c.168 0 .252.063.252.189 0 .125-.03.264-.095.414a2.552 2.552 0 01-.273.471 3.987 3.987 0 01-.438.506c-.173.171-.37.34-.588.503-.467.348-.99.637-1.57.865-.516.63-.852 1.073-1.011 1.33-.16.258-.262.443-.305.556a.81.81 0 00-.066.284c0 .196.087.294.26.294.374 0 .72-.167 1.038-.502a1.86 1.86 0 00.29-.395c.118-.145.194-.36.228-.646a.971.971 0 00.01-.108l-.041-.3c.014-.176.086-.264.215-.264.159 0 .222.138.19.412a1.715 1.715 0 01-.117.433c-.065.166-.13.3-.197.405a.132.132 0 00-.005.05l.001.053c0 .115.066.176.194.184.127 0 .293-.094.498-.281.137-.124.256-.256.36-.394l.073.06c-.04.04-.093.1-.161.179a2.492 2.492 0 01-.23.232c-.208.193-.394.29-.558.29-.163 0-.253-.08-.27-.242v0z" stroke="#fff" stroke-width=".154" stroke-miterlimit="10"/><path d="M68.522 33.746c0 .107.046.161.137.161a.672.672 0 00.3-.083c.11-.055.222-.125.337-.21.114-.087.226-.18.337-.284l.3-.302a7.11 7.11 0 00.24-.256l.143-.159.068.06a2.48 2.48 0 00-.177.182l-.248.277c-.563.595-1.049.893-1.453.893a.496.496 0 01-.318-.097.317.317 0 01-.119-.26c0-.343.5-.851 1.502-1.522-.489-.081-.827-.163-1.013-.246a3.774 3.774 0 01-.703.959.76.76 0 01-.137.124.145.145 0 00-.032.016c-.006.003-.008-.003-.01-.02a.08.08 0 010-.035.082.082 0 01.012-.027c.11-.122.21-.24.302-.353.214-.267.373-.505.474-.712-.083-.053-.13-.11-.142-.17a.384.384 0 01.001-.168.425.425 0 01.061-.14c.06-.09.13-.135.208-.135.145 0 .218.053.218.16a.27.27 0 01-.03.134l-.063.107a.29.29 0 00-.063.184c0 .042.089.08.264.117.177.037.302.063.377.076.161.03.289.048.384.052.064.003.096.02.096.053 0 .02-.038.061-.112.12a3.85 3.85 0 00-.247.22 4.248 4.248 0 00-.263.267 4.381 4.381 0 00-.444.566c-.124.193-.187.344-.187.451" fill="#fff"/><path d="M68.522 33.746c0 .107.046.161.137.161a.672.672 0 00.3-.083c.11-.055.222-.125.337-.21.114-.087.226-.18.337-.284l.3-.302a7.11 7.11 0 00.24-.256l.143-.159.068.06a2.48 2.48 0 00-.177.182l-.248.277c-.563.595-1.049.893-1.453.893a.496.496 0 01-.318-.097.317.317 0 01-.119-.26c0-.343.5-.851 1.502-1.522-.489-.081-.827-.163-1.013-.246a3.774 3.774 0 01-.703.959.76.76 0 01-.137.124.145.145 0 00-.032.016c-.006.003-.008-.003-.01-.02a.08.08 0 010-.035.082.082 0 01.012-.027c.11-.122.21-.24.302-.353.214-.267.373-.505.474-.712-.083-.053-.13-.11-.142-.17a.384.384 0 01.001-.168.425.425 0 01.061-.14c.06-.09.13-.135.208-.135.145 0 .218.053.218.16a.27.27 0 01-.03.134l-.063.107a.29.29 0 00-.063.184c0 .042.089.08.264.117.177.037.302.063.377.076.161.03.289.048.384.052.064.003.096.02.096.053 0 .02-.038.061-.112.12a3.85 3.85 0 00-.247.22 4.248 4.248 0 00-.263.267 4.381 4.381 0 00-.444.566c-.124.193-.187.344-.187.451v0z" stroke="#fff" stroke-width=".154" stroke-miterlimit="10"/><path d="M73.374 30.637a.373.373 0 01-.255.098.19.19 0 01-.137-.062.191.191 0 01-.058-.136c0-.05.009-.096.028-.135a.377.377 0 01.076-.108.331.331 0 01.225-.1c.078 0 .137.021.175.065a.21.21 0 01.057.14c0 .05-.01.095-.031.134a.38.38 0 01-.08.104zm-1.038 0a.373.373 0 01-.25.098.184.184 0 01-.134-.062.188.188 0 01-.06-.136c0-.05.01-.096.029-.135a.412.412 0 01.072-.108c.07-.066.144-.1.224-.1.079 0 .136.021.173.065a.215.215 0 01.053.14.29.29 0 01-.03.134.372.372 0 01-.077.104zm-2.325 3.177c0 .083.055.124.165.124.155 0 .32-.059.5-.176.382-.256.781-.639 1.195-1.149l.787-.945a2.49 2.49 0 00.526.01l-.34.391-1.225 1.492c-.081.1-.121.18-.121.242 0 .083.056.125.166.125a.78.78 0 00.344-.088c.12-.06.238-.134.357-.224.118-.09.235-.188.348-.296.113-.107.216-.209.308-.306l.363-.4.07.058-.136.152a7.475 7.475 0 01-.245.263l-.322.315c-.44.415-.807.623-1.097.623a.346.346 0 01-.233-.078.279.279 0 01-.1-.21c-.004-.168.055-.358.177-.57-.53.572-.98.858-1.35.858-.206 0-.34-.074-.397-.222a.516.516 0 01-.028-.159.61.61 0 01.047-.232 1.56 1.56 0 01.15-.292 4.16 4.16 0 01.246-.34l.624-.755c.096-.12.198-.24.307-.357.09.014.162.02.219.02h.117a.953.953 0 00.19-.01c-.27.296-.459.51-.568.64l-.689.828c-.242.281-.36.504-.355.668" fill="#fff"/><path d="M73.374 30.637a.373.373 0 01-.255.098.19.19 0 01-.137-.062.191.191 0 01-.058-.136c0-.05.009-.096.028-.135a.377.377 0 01.076-.108.331.331 0 01.225-.1c.078 0 .137.021.175.065a.21.21 0 01.057.14c0 .05-.01.095-.031.134a.38.38 0 01-.08.104zm-1.038 0a.373.373 0 01-.25.098.184.184 0 01-.134-.062.188.188 0 01-.06-.136c0-.05.01-.096.029-.135a.412.412 0 01.072-.108c.07-.066.144-.1.224-.1.079 0 .136.021.173.065a.215.215 0 01.053.14.29.29 0 01-.03.134.372.372 0 01-.077.104zm-2.325 3.177c0 .083.055.124.165.124.155 0 .32-.059.5-.176.382-.256.781-.639 1.195-1.149l.787-.945a2.49 2.49 0 00.526.01l-.34.391-1.225 1.492c-.081.1-.121.18-.121.242 0 .083.056.125.166.125a.78.78 0 00.344-.088c.12-.06.238-.134.357-.224.118-.09.235-.188.348-.296.113-.107.216-.209.308-.306l.363-.4.07.058-.136.152a7.475 7.475 0 01-.245.263l-.322.315c-.44.415-.807.623-1.097.623a.346.346 0 01-.233-.078.279.279 0 01-.1-.21c-.004-.168.055-.358.177-.57-.53.572-.98.858-1.35.858-.206 0-.34-.074-.397-.222a.516.516 0 01-.028-.159.61.61 0 01.047-.232 1.56 1.56 0 01.15-.292 4.16 4.16 0 01.246-.34l.624-.755c.096-.12.198-.24.307-.357.09.014.162.02.219.02h.117a.953.953 0 00.19-.01c-.27.296-.459.51-.568.64l-.689.828c-.242.281-.36.504-.355.668v0z" stroke="#fff" stroke-width=".154" stroke-miterlimit="10"/><path d="M73.679 32.786c-.331.401-.495.721-.495.962 0 .115.057.173.172.173.206 0 .492-.167.86-.502l.282-.273c.164-.161.298-.316.402-.464l.307-.44a.628.628 0 00.08-.272c0-.077-.028-.131-.082-.165a.327.327 0 00-.173-.05c-.06 0-.135.02-.227.06-.09.04-.195.103-.31.189-.251.18-.523.44-.816.782zm1.002.29c-.565.633-1.014.949-1.349.949-.292 0-.44-.151-.44-.453 0-.352.145-.69.434-1.018.518-.604 1.066-.906 1.643-.906.173 0 .3.053.384.159a.17.17 0 01.038.096l-.001.058c-.001.007-.003.017-.003.03l1.718-2.464.726-1.028a.597.597 0 00.238.055c.075 0 .14-.003.2-.01l-3.286 4.609c-.133.18-.235.322-.303.427-.067.105-.101.188-.101.25 0 .06.028.091.086.091.224 0 .477-.104.761-.312.26-.189.546-.472.854-.85.058-.075.098-.123.122-.146l.076.06c-.026.024-.07.075-.134.151a6.093 6.093 0 01-.234.263c-.094.1-.2.204-.315.315-.117.11-.241.212-.373.304-.298.212-.56.319-.787.319-.227 0-.34-.074-.338-.224.003-.148.141-.385.413-.71l-.029-.014" fill="#fff"/><path d="M73.679 32.786c-.331.401-.495.721-.495.962 0 .115.057.173.172.173.206 0 .492-.167.86-.502l.282-.273c.164-.161.298-.316.402-.464l.307-.44a.628.628 0 00.08-.272c0-.077-.028-.131-.082-.165a.327.327 0 00-.173-.05c-.06 0-.135.02-.227.06-.09.04-.195.103-.31.189-.251.18-.523.44-.816.782zm1.002.29c-.565.633-1.014.949-1.349.949-.292 0-.44-.151-.44-.453 0-.352.145-.69.434-1.018.518-.604 1.066-.906 1.643-.906.173 0 .3.053.384.159a.17.17 0 01.038.096l-.001.058c-.001.007-.003.017-.003.03l1.718-2.464.726-1.028a.597.597 0 00.238.055c.075 0 .14-.003.2-.01l-3.286 4.609c-.133.18-.235.322-.303.427-.067.105-.101.188-.101.25 0 .06.028.091.086.091.224 0 .477-.104.761-.312.26-.189.546-.472.854-.85.058-.075.098-.123.122-.146l.076.06c-.026.024-.07.075-.134.151a6.093 6.093 0 01-.234.263c-.094.1-.2.204-.315.315-.117.11-.241.212-.373.304-.298.212-.56.319-.787.319-.227 0-.34-.074-.338-.224.003-.148.141-.385.413-.71l-.029-.014z" stroke="#fff" stroke-width=".154" stroke-miterlimit="10"/><path d="M76.654 32.89c.697-.245 1.146-.488 1.347-.73a.38.38 0 00.1-.236c0-.13-.06-.194-.18-.194-.212 0-.478.186-.796.558a5.96 5.96 0 00-.47.602zm1.061.828a2.31 2.31 0 01-.474.23c-.17.06-.33.09-.483.09a.999.999 0 01-.347-.046.516.516 0 01-.196-.13c-.217-.235-.216-.582.003-1.042.095-.202.238-.388.43-.555a3.27 3.27 0 01.505-.375c.281-.162.545-.243.791-.243.245 0 .373.077.385.229.016.247-.284.515-.9.806-.225.106-.51.215-.854.329-.137.221-.205.402-.205.542 0 .139.037.238.11.297a.498.498 0 00.317.088c.141 0 .292-.03.455-.09a2.27 2.27 0 00.455-.229 2.78 2.78 0 00.387-.3 5.09 5.09 0 00.524-.569c.057-.073.095-.119.115-.137l.073.059a1.16 1.16 0 00-.136.155 5.429 5.429 0 01-.554.585c-.12.11-.255.212-.4.306" fill="#fff"/><path d="M76.654 32.89c.697-.245 1.146-.488 1.347-.73a.38.38 0 00.1-.236c0-.13-.06-.194-.18-.194-.212 0-.478.186-.796.558a5.96 5.96 0 00-.47.602zm1.061.828a2.31 2.31 0 01-.474.23c-.17.06-.33.09-.483.09a.999.999 0 01-.347-.046.516.516 0 01-.196-.13c-.217-.235-.216-.582.003-1.042.095-.202.238-.388.43-.555a3.27 3.27 0 01.505-.375c.281-.162.545-.243.791-.243.245 0 .373.077.385.229.016.247-.284.515-.9.806-.225.106-.51.215-.854.329-.137.221-.205.402-.205.542 0 .139.037.238.11.297a.498.498 0 00.317.088c.141 0 .292-.03.455-.09a2.27 2.27 0 00.455-.229 2.78 2.78 0 00.387-.3 5.09 5.09 0 00.524-.569c.057-.073.095-.119.115-.137l.073.059a1.16 1.16 0 00-.136.155 5.429 5.429 0 01-.554.585c-.12.11-.255.212-.4.306v0z" stroke="#fff" stroke-width=".154" stroke-miterlimit="10"/><path d="M79.308 33.746c0 .107.045.161.136.161a.682.682 0 00.302-.083c.11-.055.222-.125.335-.21a3.97 3.97 0 00.337-.284l.302-.302c.093-.094.172-.18.239-.256l.142-.159.069.06c-.044.038-.103.1-.176.182l-.25.277c-.563.595-1.047.893-1.453.893a.488.488 0 01-.316-.097.317.317 0 01-.12-.26c0-.343.5-.851 1.502-1.522-.49-.081-.828-.163-1.014-.246-.152.314-.387.633-.703.959a.723.723 0 01-.136.124.266.266 0 00-.034.016c-.003.003-.007-.003-.01-.02a.195.195 0 010-.035.095.095 0 01.015-.027c.107-.122.208-.24.3-.353a3.97 3.97 0 00.474-.712c-.083-.053-.13-.11-.142-.17a.415.415 0 01.062-.308c.06-.09.13-.135.21-.135.143 0 .216.053.216.16 0 .052-.01.098-.031.134l-.062.107a.29.29 0 00-.063.184c0 .042.089.08.266.117.176.037.3.063.375.076.161.03.289.048.384.052.065.003.096.02.096.053 0 .02-.036.061-.112.12a4.915 4.915 0 00-.953 1.052c-.125.194-.187.345-.187.452" fill="#fff"/><path d="M79.308 33.746c0 .107.045.161.136.161a.682.682 0 00.302-.083c.11-.055.222-.125.335-.21a3.97 3.97 0 00.337-.284l.302-.302c.093-.094.172-.18.239-.256l.142-.159.069.06c-.044.038-.103.1-.176.182l-.25.277c-.563.595-1.047.893-1.453.893a.488.488 0 01-.316-.097.317.317 0 01-.12-.26c0-.343.5-.851 1.502-1.522-.49-.081-.828-.163-1.014-.246-.152.314-.387.633-.703.959a.723.723 0 01-.136.124.266.266 0 00-.034.016c-.003.003-.007-.003-.01-.02a.195.195 0 010-.035.095.095 0 01.015-.027c.107-.122.208-.24.3-.353a3.97 3.97 0 00.474-.712c-.083-.053-.13-.11-.142-.17a.415.415 0 01.062-.308c.06-.09.13-.135.21-.135.143 0 .216.053.216.16 0 .052-.01.098-.031.134l-.062.107a.29.29 0 00-.063.184c0 .042.089.08.266.117.176.037.3.063.375.076.161.03.289.048.384.052.065.003.096.02.096.053 0 .02-.036.061-.112.12a4.915 4.915 0 00-.953 1.052c-.125.194-.187.345-.187.452v0z" stroke="#fff" stroke-width=".154" stroke-miterlimit="10"/><path d="M86.253 32.19c.484-.082.998-.28 1.54-.594a5.028 5.028 0 001.255-.997c.35-.386.524-.729.524-1.031 0-.134-.074-.23-.223-.29a.359.359 0 00-.14-.029c-.734 0-1.45.575-2.15 1.724l-.415.65a12.08 12.08 0 01-.39.568zm-2.91 1.374c-.47 0-.706.059-.706.174 0 .078.119.139.357.183a2 2 0 00.335.02c.373 0 .695-.072.962-.217-.401-.106-.718-.16-.948-.16zm1.156.221a2.95 2.95 0 01-1.198.24c-.368 0-.608-.06-.716-.18a.177.177 0 01-.044-.118c0-.043.018-.088.054-.131a.419.419 0 01.16-.111c.139-.065.34-.097.608-.097.265 0 .627.08 1.084.242.327-.214.729-.645 1.205-1.294-.472-.014-.856-.118-1.153-.311-.292-.191-.436-.438-.436-.74 0-.304.138-.582.415-.839.281-.26.597-.39.944-.39.05 0 .077.013.077.041 0 .02-.064.038-.19.05a1.065 1.065 0 00-.39.123 1.14 1.14 0 00-.33.253c-.179.2-.267.408-.267.623 0 .215.033.386.099.516.065.128.16.236.281.321.241.164.58.248 1.02.253l.472-.682c.572-.853 1.098-1.467 1.578-1.84.468-.363.953-.544 1.456-.544.268 0 .446.082.534.245a.478.478 0 01.042.219.868.868 0 01-.093.34 2.114 2.114 0 01-.255.414c-.11.14-.24.28-.39.421a5.324 5.324 0 01-.492.41 6.344 6.344 0 01-.565.373c-.2.117-.403.225-.61.322a4.6 4.6 0 01-1.23.387c-.507.679-1.011 1.148-1.511 1.408.42.151.922.226 1.505.226.517 0 .893-.12 1.132-.357.035-.035.055-.04.065-.02.016.036 0 .08-.051.131a1.633 1.633 0 01-1.11.415c-.425 0-.992-.106-1.7-.319" fill="#fff"/><path d="M86.253 32.19c.484-.082.998-.28 1.54-.594a5.028 5.028 0 001.255-.997c.35-.386.524-.729.524-1.031 0-.134-.074-.23-.223-.29a.359.359 0 00-.14-.029c-.734 0-1.45.575-2.15 1.724l-.415.65a12.08 12.08 0 01-.39.568v0zm-2.91 1.374c-.47 0-.706.059-.706.174 0 .078.119.139.357.183a2 2 0 00.335.02c.373 0 .695-.072.962-.217-.401-.106-.718-.16-.948-.16v0zm1.156.221a2.95 2.95 0 01-1.198.24c-.368 0-.608-.06-.716-.18a.177.177 0 01-.044-.118c0-.043.018-.088.054-.131a.419.419 0 01.16-.111c.139-.065.34-.097.608-.097.265 0 .627.08 1.084.242.327-.214.729-.645 1.205-1.294-.472-.014-.856-.118-1.153-.311-.292-.191-.436-.438-.436-.74 0-.304.138-.582.415-.839.281-.26.597-.39.944-.39.05 0 .077.013.077.041 0 .02-.064.038-.19.05a1.065 1.065 0 00-.39.123 1.14 1.14 0 00-.33.253c-.179.2-.267.408-.267.623 0 .215.033.386.099.516.065.128.16.236.281.321.241.164.58.248 1.02.253l.472-.682c.572-.853 1.098-1.467 1.578-1.84.468-.363.953-.544 1.456-.544.268 0 .446.082.534.245a.478.478 0 01.042.219.868.868 0 01-.093.34 2.114 2.114 0 01-.255.414c-.11.14-.24.28-.39.421a5.324 5.324 0 01-.492.41 6.344 6.344 0 01-.565.373c-.2.117-.403.225-.61.322a4.6 4.6 0 01-1.23.387c-.507.679-1.011 1.148-1.511 1.408.42.151.922.226 1.505.226.517 0 .893-.12 1.132-.357.035-.035.055-.04.065-.02.016.036 0 .08-.051.131a1.633 1.633 0 01-1.11.415c-.425 0-.992-.106-1.7-.319v0z" stroke="#fff" stroke-width=".154" stroke-miterlimit="10"/><path d="M90.002 30.89a.383.383 0 01-.112.071.378.378 0 01-.142.025.18.18 0 01-.137-.06.197.197 0 01-.057-.136c0-.051.01-.096.028-.136a.326.326 0 01.076-.103.302.302 0 01.22-.104c.08 0 .138.021.176.064a.2.2 0 01.057.14c0 .05-.009.096-.029.135a.338.338 0 01-.08.104zm-2.198 2.929c0 .072.067.109.203.109a.84.84 0 00.387-.093c.12-.063.243-.14.365-.234a3.95 3.95 0 00.359-.306l.312-.312c.091-.097.168-.18.228-.25l.107-.124.07.063a2.772 2.772 0 00-.13.147 7.517 7.517 0 01-.556.58 3.508 3.508 0 01-.37.304c-.298.214-.559.322-.782.322a.656.656 0 01-.343-.078c-.085-.052-.127-.111-.127-.178a.708.708 0 01.096-.37c.037-.074.088-.16.155-.26.065-.1.15-.218.255-.357.106-.138.233-.298.383-.48l.532-.63a.88.88 0 00.17.01h.162c.06 0 .11-.002.146-.007a99.955 99.955 0 00-1.289 1.555 4.746 4.746 0 00-.212.297c-.08.122-.121.22-.121.292" fill="#fff"/><path d="M90.002 30.89a.383.383 0 01-.112.071.378.378 0 01-.142.025.18.18 0 01-.137-.06.197.197 0 01-.057-.136c0-.051.01-.096.028-.136a.326.326 0 01.076-.103.302.302 0 01.22-.104c.08 0 .138.021.176.064a.2.2 0 01.057.14c0 .05-.009.096-.029.135a.338.338 0 01-.08.104v0zm-2.198 2.929c0 .072.067.109.203.109a.84.84 0 00.387-.093c.12-.063.243-.14.365-.234a3.95 3.95 0 00.359-.306l.312-.312c.091-.097.168-.18.228-.25l.107-.124.07.063a2.772 2.772 0 00-.13.147 7.517 7.517 0 01-.556.58 3.508 3.508 0 01-.37.304c-.298.214-.559.322-.782.322a.656.656 0 01-.343-.078c-.085-.052-.127-.111-.127-.178a.708.708 0 01.096-.37c.037-.074.088-.16.155-.26.065-.1.15-.218.255-.357.106-.138.233-.298.383-.48l.532-.63a.88.88 0 00.17.01h.162c.06 0 .11-.002.146-.007a99.955 99.955 0 00-1.289 1.555 4.746 4.746 0 00-.212.297c-.08.122-.121.22-.121.292v0z" stroke="#fff" stroke-width=".154" stroke-miterlimit="10"/><path d="M91.522 31.938c-.003-.133-.088-.2-.252-.2-.334 0-.767.347-1.297 1.044-.219.291-.33.553-.33.79 0 .101.03.178.084.231.098.09.221.135.373.135.15 0 .31-.031.48-.093.169-.063.327-.14.473-.236a2.93 2.93 0 00.398-.309 5.12 5.12 0 00.311-.315 3.835 3.835 0 00.297-.372l.077.059-.094.124c-.434.57-.918.952-1.453 1.146-.18.064-.35.096-.51.096-.158 0-.283-.015-.373-.048a.68.68 0 01-.225-.132.569.569 0 01-.172-.421c0-.33.142-.667.428-1.008a2.3 2.3 0 01.796-.615 1.65 1.65 0 01.726-.167c.209.007.34.078.395.211.056.137.026.26-.09.374-.075.078-.15.118-.221.118-.165 0-.251-.068-.255-.204a.19.19 0 01.074-.161.281.281 0 01.154-.071.426.426 0 01.206.038v-.014" fill="#fff"/><path d="M91.522 31.938c-.003-.133-.088-.2-.252-.2-.334 0-.767.347-1.297 1.044-.219.291-.33.553-.33.79 0 .101.03.178.084.231.098.09.221.135.373.135.15 0 .31-.031.48-.093.169-.063.327-.14.473-.236a2.93 2.93 0 00.398-.309 5.12 5.12 0 00.311-.315 3.835 3.835 0 00.297-.372l.077.059-.094.124c-.434.57-.918.952-1.453 1.146-.18.064-.35.096-.51.096-.158 0-.283-.015-.373-.048a.68.68 0 01-.225-.132.569.569 0 01-.172-.421c0-.33.142-.667.428-1.008a2.3 2.3 0 01.796-.615 1.65 1.65 0 01.726-.167c.209.007.34.078.395.211.056.137.026.26-.09.374-.075.078-.15.118-.221.118-.165 0-.251-.068-.255-.204a.19.19 0 01.074-.161.281.281 0 01.154-.071.426.426 0 01.206.038v-.014z" stroke="#fff" stroke-width=".154" stroke-miterlimit="10"/><path d="M91.644 33.952a1.203 1.203 0 00-.208-.017c-.13 0-.239.011-.325.034l3.83-5.47c.156.023.316.023.481 0l-3.432 4.765.017.037c.176-.203.338-.383.488-.54l.412-.415a4.09 4.09 0 01.571-.484c.219-.142.427-.214.623-.214.205 0 .335.074.388.22.104.287-.22.834-.973 1.641l-.135.149c-.073.083-.111.147-.111.19 0 .023.026.042.077.058.05.014.122.022.215.022.092 0 .2-.03.324-.088.125-.06.246-.134.365-.224.117-.09.229-.189.334-.297a7.153 7.153 0 00.499-.565c.057-.073.096-.12.117-.14l.077.058a3.401 3.401 0 00-.126.152 8.115 8.115 0 01-.526.582 2.88 2.88 0 01-.359.3c-.29.212-.554.319-.792.319-.19 0-.329-.052-.419-.156a.164.164 0 01-.041-.114c0-.044.006-.094.018-.151a.89.89 0 01.095-.216 4.11 4.11 0 01.467-.624c.195-.218.322-.367.385-.445.062-.079.112-.146.15-.205.068-.11.102-.196.102-.255 0-.084-.053-.124-.163-.124-.144 0-.312.064-.5.193-.46.307-.996.84-1.606 1.602l-.32.422" fill="#fff"/><path d="M91.644 33.952a1.203 1.203 0 00-.208-.017c-.13 0-.239.011-.325.034l3.83-5.47c.156.023.316.023.481 0l-3.432 4.765.017.037c.176-.203.338-.383.488-.54l.412-.415a4.09 4.09 0 01.571-.484c.219-.142.427-.214.623-.214.205 0 .335.074.388.22.104.287-.22.834-.973 1.641l-.135.149c-.073.083-.111.147-.111.19 0 .023.026.042.077.058.05.014.122.022.215.022.092 0 .2-.03.324-.088.125-.06.246-.134.365-.224.117-.09.229-.189.334-.297a7.153 7.153 0 00.499-.565c.057-.073.096-.12.117-.14l.077.058a3.401 3.401 0 00-.126.152 8.115 8.115 0 01-.526.582 2.88 2.88 0 01-.359.3c-.29.212-.554.319-.792.319-.19 0-.329-.052-.419-.156a.164.164 0 01-.041-.114c0-.044.006-.094.018-.151a.89.89 0 01.095-.216 4.11 4.11 0 01.467-.624c.195-.218.322-.367.385-.445.062-.079.112-.146.15-.205.068-.11.102-.196.102-.255 0-.084-.053-.124-.163-.124-.144 0-.312.064-.5.193-.46.307-.996.84-1.606 1.602l-.32.422z" stroke="#fff" stroke-width=".154" stroke-miterlimit="10"/><path d="M94.831 33.817c0 .07.056.105.167.107a.765.765 0 00.333-.072c.112-.051.223-.116.334-.194.11-.078.218-.167.322-.265a6.368 6.368 0 00.533-.566l.18-.214.076.06-.18.206c-.644.764-1.184 1.146-1.623 1.146-.126 0-.222-.026-.285-.076-.064-.051-.095-.107-.095-.166 0-.06.002-.11.007-.15a.7.7 0 01.037-.13c.018-.046.046-.102.082-.167.035-.064.084-.142.144-.235l.539-.779.893-1.256h-.274c-.069 0-.104-.016-.104-.05 0-.033.044-.05.131-.05h.316l.64-.9c.162.026.322.026.48 0l-.667.9h.893c.065 0 .096.017.096.05 0 .034-.028.05-.086.05h-.979l-1.432 1.948c-.248.349-.388.563-.425.644a.553.553 0 00-.053.159" fill="#fff"/><path d="M94.831 33.817c0 .07.056.105.167.107a.765.765 0 00.333-.072c.112-.051.223-.116.334-.194.11-.078.218-.167.322-.265a6.368 6.368 0 00.533-.566l.18-.214.076.06-.18.206c-.644.764-1.184 1.146-1.623 1.146-.126 0-.222-.026-.285-.076-.064-.051-.095-.107-.095-.166 0-.06.002-.11.007-.15a.7.7 0 01.037-.13c.018-.046.046-.102.082-.167.035-.064.084-.142.144-.235l.539-.779.893-1.256h-.274c-.069 0-.104-.016-.104-.05 0-.033.044-.05.131-.05h.316l.64-.9c.162.026.322.026.48 0l-.667.9h.893c.065 0 .096.017.096.05 0 .034-.028.05-.086.05h-.979l-1.432 1.948c-.248.349-.388.563-.425.644a.553.553 0 00-.053.159v0z" stroke="#fff" stroke-width=".154" stroke-miterlimit="10"/></svg>